<svg width="23" height="24" viewBox="0 0 23 24" fill="none" xmlns="http://www.w3.org/2000/svg">
<g clip-path="url(#clip0_94_1010)">
<path d="M21.64 0.769226H0.975366C0.478404 0.769226 0.0769043 1.17073 0.0769043 1.66769V22.3323C0.0769043 22.8293 0.478404 23.2308 0.975366 23.2308H21.64C22.1369 23.2308 22.5384 22.8293 22.5384 22.3323V1.66769C22.5384 1.17073 22.1369 0.769226 21.64 0.769226ZM19.0457 7.32519H17.2516C15.8449 7.32519 15.5726 7.99342 15.5726 8.97611V11.1408H18.9306L18.4926 14.5297H15.5726V23.2308H12.0714V14.5325H9.14294V11.1408H12.0714V8.64199C12.0714 5.74165 13.843 4.16092 16.4317 4.16092C17.6727 4.16092 18.7368 4.25357 19.0485 4.29569V7.32519H19.0457Z" fill="#F3F3F3"/>
</g>
<defs>
<clipPath id="clip0_94_1010">
<rect width="22.4615" height="22.4615" fill="white" transform="translate(0.0769043 0.769226)"/>
</clipPath>
</defs>
</svg>
