<svg width="23" height="24" viewBox="0 0 23 24" fill="none" xmlns="http://www.w3.org/2000/svg">
<g clip-path="url(#clip0_94_1012)">
<path d="M11.771 6.24189C8.5843 6.24189 6.01245 8.81373 6.01245 12.0005C6.01245 15.1872 8.5843 17.759 11.771 17.759C14.9578 17.759 17.5296 15.1872 17.5296 12.0005C17.5296 8.81373 14.9578 6.24189 11.771 6.24189ZM11.771 15.7431C9.71019 15.7431 8.02838 14.0613 8.02838 12.0005C8.02838 9.93962 9.71019 8.25781 11.771 8.25781C13.8319 8.25781 15.5137 9.93962 15.5137 12.0005C15.5137 14.0613 13.8319 15.7431 11.771 15.7431ZM17.7655 4.66396C17.0214 4.66396 16.4206 5.26481 16.4206 6.00885C16.4206 6.75289 17.0214 7.35373 17.7655 7.35373C18.5095 7.35373 19.1103 6.75569 19.1103 6.00885C19.1106 5.83217 19.0759 5.65719 19.0084 5.49392C18.9409 5.33065 18.8419 5.1823 18.7169 5.05738C18.592 4.93245 18.4437 4.83339 18.2804 4.76589C18.1171 4.69838 17.9421 4.66374 17.7655 4.66396ZM22.9962 12.0005C22.9962 10.4506 23.0102 8.91481 22.9232 7.36777C22.8361 5.57085 22.4262 3.97608 21.1122 2.66208C19.7954 1.34527 18.2035 0.938156 16.4065 0.851118C14.8567 0.764079 13.3209 0.778118 11.7738 0.778118C10.224 0.778118 8.68819 0.764079 7.14115 0.851118C5.34422 0.938156 3.74946 1.34808 2.43546 2.66208C1.11865 3.97889 0.711533 5.57085 0.624494 7.36777C0.537456 8.91762 0.551494 10.4534 0.551494 12.0005C0.551494 13.5475 0.537456 15.0861 0.624494 16.6332C0.711533 18.4301 1.12146 20.0248 2.43546 21.3388C3.75226 22.6557 5.34422 23.0628 7.14115 23.1498C8.69099 23.2368 10.2268 23.2228 11.7738 23.2228C13.3237 23.2228 14.8595 23.2368 16.4065 23.1498C18.2035 23.0628 19.7982 22.6528 21.1122 21.3388C22.429 20.022 22.8361 18.4301 22.9232 16.6332C23.013 15.0861 22.9962 13.5503 22.9962 12.0005ZM20.5254 18.621C20.3205 19.132 20.0734 19.5138 19.6775 19.9069C19.2816 20.3028 18.9026 20.5499 18.3916 20.7548C16.9147 21.3417 13.4079 21.2097 11.771 21.2097C10.1341 21.2097 6.62453 21.3417 5.14769 20.7577C4.63669 20.5527 4.25484 20.3056 3.86176 19.9097C3.46588 19.5138 3.2188 19.1348 3.01384 18.6238C2.42984 17.1442 2.5618 13.6373 2.5618 12.0005C2.5618 10.3636 2.42984 6.85396 3.01384 5.37712C3.2188 4.86612 3.46588 4.48427 3.86176 4.09119C4.25765 3.69812 4.63669 3.44823 5.14769 3.24327C6.62453 2.65927 10.1341 2.79123 11.771 2.79123C13.4079 2.79123 16.9175 2.65927 18.3944 3.24327C18.9054 3.44823 19.2872 3.69531 19.6803 4.09119C20.0762 4.48708 20.3233 4.86612 20.5282 5.37712C21.1122 6.85396 20.9803 10.3636 20.9803 12.0005C20.9803 13.6373 21.1122 17.1442 20.5254 18.621Z" fill="#F3F3F3"/>
</g>
<defs>
<clipPath id="clip0_94_1012">
<rect width="22.4615" height="22.4615" fill="white" transform="translate(0.538452 0.769226)"/>
</clipPath>
</defs>
</svg>
