<svg width="40" height="40" viewBox="0 0 40 40" fill="none" xmlns="http://www.w3.org/2000/svg">
<rect x="0.5" y="0.5" width="39" height="39" rx="3.5" fill="#101010"/>
<rect x="0.5" y="0.5" width="39" height="39" rx="3.5" stroke="#F2F2F2"/>
<path d="M27.5 28.5C27.025 19.167 12.975 19.167 12.5 28.5M23 15.5C23 16.2956 22.6839 17.0587 22.1213 17.6213C21.5587 18.1839 20.7956 18.5 20 18.5C19.2044 18.5 18.4413 18.1839 17.8787 17.6213C17.3161 17.0587 17 16.2956 17 15.5C17 14.7044 17.3161 13.9413 17.8787 13.3787C18.4413 12.8161 19.2044 12.5 20 12.5C20.7956 12.5 21.5587 12.8161 22.1213 13.3787C22.6839 13.9413 23 14.7044 23 15.5Z" stroke="#F2F2F2" stroke-width="1.5" stroke-linecap="round" stroke-linejoin="round"/>
</svg>
