<svg width="97" height="89" viewBox="0 0 97 89" fill="none" xmlns="http://www.w3.org/2000/svg">
<g clip-path="url(#clip0_94_1019)">
<path d="M74.7237 0L85.9735 10.8765C85.9884 10.9619 84.9946 11.9834 84.8539 12.1497C82.1646 15.3167 80.3945 18.7183 79.7014 22.8557C78.8675 27.8354 79.0957 33.3547 80.467 38.2215C80.8743 39.6717 81.48 40.9342 82.1923 42.2522C82.2605 42.2991 82.6295 41.896 82.7041 41.8192C83.2458 41.2541 83.7299 40.6292 84.4252 40.2155C84.6747 40.0662 86.1612 39.3411 86.3723 39.2963C86.8799 39.1918 88.409 39.2771 88.9166 39.4413C89.1789 39.5266 89.5692 39.7762 89.8101 39.9297C92.8279 41.8363 92.5975 45.0822 93.6383 48.0189C93.8025 48.4795 94.8326 50.239 95.1418 50.6591C95.3529 50.9427 95.7901 51.1667 95.9394 51.4482C96.0162 51.5911 96.4001 52.9581 96.4128 53.1245C96.4299 53.3505 96.0759 54.532 95.9607 54.7687C95.6835 55.3424 94.8048 55.995 94.2887 56.3704C93.8899 56.6604 93.6724 56.6881 93.2565 56.8737C92.9345 57.0187 92.7553 57.2981 92.3181 57.1893C92.2734 57.9613 92.38 58.8037 92.3181 59.5672C92.1475 61.621 91.4416 63.824 90.2836 65.5131C86.85 70.5291 82.0643 72.9667 76.7327 75.4939C73.41 77.0699 69.9125 78.1085 66.4576 79.3369C65.3934 79.7144 64.3612 80.2156 63.2884 80.5653C62.0451 80.9727 61.0342 81.1945 59.7994 81.7319C57.9867 82.521 56.1184 83.2013 54.3761 84.1354C52.6337 85.0695 51.0683 86.0313 49.4752 87.2661C48.7501 87.8292 48.0634 88.4476 47.3234 88.9936C46.9907 88.7185 46.6772 88.3559 46.3509 88.083C44.3696 86.4237 41.7273 84.9991 39.4219 83.8091C35.5831 81.8279 31.1344 80.5014 27.0802 78.9637C24.6362 78.036 21.8168 77.0849 19.5391 75.865C18.5666 75.3446 17.5664 74.628 16.5897 74.1588C16.3167 74.0266 15.9883 73.9584 15.7089 73.8112C15.1096 73.4956 14.4805 72.9795 13.8897 72.6127C12.6826 71.862 11.1898 71.0942 10.1128 70.2006C6.87115 67.5114 4.54229 64.5939 3.82999 60.32C3.62525 59.0916 3.6679 57.8163 3.66151 56.5751C3.37573 56.4834 2.87242 56.364 2.6229 56.2061C2.4203 56.0782 2.24542 55.8052 2.05135 55.6517C1.89993 55.5301 1.67814 55.4448 1.51819 55.3147C0.306839 54.3358 -0.484377 52.8174 0.326033 51.3181C0.424135 51.1368 0.641666 51.0046 0.767492 50.8382C1.4798 49.8913 1.67174 49.467 2.1068 48.3921C2.25182 48.0338 2.55466 47.6521 2.69968 47.2959C2.87456 46.8694 2.89375 46.3661 3.03237 45.9417C3.11341 45.6964 3.2691 45.5194 3.35654 45.2955C3.57407 44.741 3.62738 44.0351 3.84065 43.4785C3.91956 43.2737 4.06884 43.1095 4.14562 42.9133C4.44846 42.137 4.60201 41.4076 5.14583 40.7401C5.68966 40.0726 7.04816 39.0553 7.88203 38.9743C9.99763 38.7674 11.3177 39.5032 13.0345 40.5588L14.0966 41.992C14.7769 40.0854 15.3613 38.1383 15.8112 36.1613C16.6515 32.4697 17.0759 28.7269 16.9117 24.9307C16.852 23.5467 16.5236 22.2777 16.1887 20.9469C15.7238 19.1001 15.3015 17.411 14.4101 15.7155C13.8961 14.7388 13.2051 13.5338 12.6016 12.6147C12.062 11.7936 11.4052 11.0344 10.8464 10.224L10.8272 10.1088L21.8787 0H74.7237Z" fill="white"/>
<path d="M85.3979 44.5502C85.3272 44.6209 84.7892 45.9182 84.772 46.0553C84.7227 46.4449 85.1064 47.4554 85.3122 47.8194C86.3261 49.6241 87.9445 51.2212 88.892 53.0774C89.668 54.5974 90.371 57.0252 90.2188 58.7358C90.1545 59.453 89.9423 60.6176 89.7923 61.3391C88.9734 65.2484 85.3165 68.8537 82.0089 70.8704C76.7872 74.0561 70.8087 76.2847 65.0253 78.2501C63.6534 78.7168 62.3051 79.1214 60.9225 79.5453C57.3899 80.6286 54.0652 82.519 50.8177 84.2424L47.1993 86.9999C47.1157 87.0063 46.8756 86.6167 46.7727 86.5161C44.9957 84.7712 41.5081 82.8701 39.1973 81.911C37.4181 81.1745 35.5875 80.6029 33.8019 79.905C33.3711 79.7359 32.9445 79.4661 32.5051 79.2991C31.0324 78.7382 29.4162 78.3421 27.9264 77.8112C26.7517 77.3916 25.5256 76.8628 24.3702 76.3811C20.0251 74.5677 15.8559 72.5617 12.1003 69.6865C8.19898 66.6999 5.36946 62.8228 5.7403 57.6546C5.79817 56.8604 6.35122 54.5782 6.70705 53.8952C6.94285 53.4435 7.26653 52.8205 7.51733 52.3923C8.10467 51.3861 9.26649 50.3692 9.92671 49.3544C10.5869 48.3396 11.4787 46.7725 11.3393 45.5393C11.3072 45.2546 10.9321 44.2954 10.7713 44.0535C10.4197 43.5247 9.55802 43.1907 8.94281 43.392C8.90208 43.4048 8.21613 43.7859 8.18184 43.8137C7.9439 44.0021 7.63094 44.7343 7.41229 44.9955C7.28582 45.124 6.66632 44.8028 6.56772 44.7108C6.53985 44.6851 6.24833 44.2976 6.21403 44.2419C5.78317 43.5654 6.25476 42.4521 6.69848 41.8655C6.91284 41.5829 7.08861 41.5508 7.33512 41.371C7.43587 41.2982 7.56877 41.1034 7.64808 41.067C8.06179 40.8786 9.37152 41.1291 9.82168 41.3089C10.8827 41.7328 12.2761 43.0623 12.8334 44.0535C12.9127 44.1927 12.9234 44.364 13.0028 44.501C13.1657 44.7793 13.4165 44.8521 13.4979 45.291C13.6265 45.9932 13.6094 46.6376 13.6651 47.3334C14.0381 52.0498 15.2085 57.1472 18.9083 60.3779C19.6028 60.9837 20.4431 61.656 21.1762 62.2212C22.8418 63.5036 25.4269 64.7068 27.3926 65.5117C28.2779 65.8735 29.2468 66.0876 30.13 66.4238C30.5608 66.5886 30.9617 66.8477 31.3882 67.0146C32.3979 67.4129 33.4847 67.6826 34.5222 68.0958C35.7269 68.5775 37.103 69.0314 38.2349 69.6265C40.715 70.9282 43.6881 72.4697 45.8467 74.2466C46.4512 74.7454 46.8885 75.4412 47.5144 75.9079C48.0224 75.5825 48.3354 74.9724 48.7813 74.602C49.0664 74.3643 49.4651 74.2081 49.7545 73.9811C49.9602 73.8206 50.1253 73.5893 50.3289 73.4245C52.4682 71.7011 54.9998 70.5985 57.5249 69.5687C59.6278 68.7124 61.7799 68.1322 63.8614 67.3208C66.961 66.1112 70.723 64.6297 73.5504 62.9277C76.5728 61.1079 79.3359 57.8152 80.7378 54.5974C81.0014 53.9937 81.5352 52.8419 81.6788 52.2489C81.9296 51.2127 81.9361 49.8297 82.1118 48.7271C82.4741 46.4449 83.025 44.2548 84.8792 42.709C85.3486 42.3173 86.7934 41.5551 87.3743 41.5037C88.7012 41.386 89.4557 41.7114 90.3303 42.6598C90.4525 42.7925 90.6711 43.0944 90.6926 43.2742C90.7162 43.4648 90.7162 44.5031 90.6626 44.6337C90.6261 44.7236 90.191 45.2974 90.0988 45.4066C90.0174 45.5029 89.4386 46.0874 89.3807 46.0745C89.1063 45.7898 87.6251 43.4519 87.4665 43.4113C87.3079 43.3706 86.832 43.7431 86.6627 43.8266C86.5255 43.8951 86.3475 43.8908 86.1975 43.9786C86.1396 44.0128 85.4408 44.5138 85.4065 44.5502H85.3979Z" fill="black"/>
<path d="M79.7571 6.63041C81.1732 8.06569 82.6064 9.4839 84.0224 10.9213C83.3677 11.9919 82.4635 12.9409 81.7618 13.9689C79.6889 17.01 79.16 19.5372 78.4946 23.0817C78.4285 23.4336 78.2472 23.8431 78.2088 24.1758C78.1576 24.6087 78.228 25.1077 78.2024 25.5513C78.0297 28.4624 77.8377 31.237 78.4839 34.1203C78.7548 35.3317 79.015 36.5537 79.2922 37.7629C79.9704 40.7209 80.9237 43.4635 81.0687 46.5751C81.2372 50.1664 80.2007 53.6853 78.1918 56.6455C77.6863 57.3919 76.3961 59.1257 75.7691 59.6973C74.2613 61.0707 71.6296 62.7342 69.7955 63.647C67.6052 64.7368 65.3596 65.3723 63.084 66.1955C62.1947 66.5175 61.3459 66.927 60.463 67.2576C58.8272 67.8718 57.2107 68.3111 55.6069 69.0511C54.0778 69.7592 51.943 70.8831 50.5824 71.8534C49.6888 72.489 48.8699 73.4977 47.9933 74.1247C47.9336 74.1674 47.8782 74.2249 47.7971 74.2164C47.7076 74.2079 46.5197 73.2887 46.3576 73.1501C45.946 72.8025 45.5408 72.3077 45.1185 71.9835C44.355 71.397 43.0946 70.6101 42.2522 70.0919C40.3542 68.9253 38.5585 68.2663 36.5239 67.4303C36.0014 67.2149 35.5152 66.9121 34.9863 66.718C34.4574 66.5239 33.8901 66.4258 33.3612 66.2445C31.3074 65.5472 29.1001 64.6898 27.0827 63.8773C25.5386 63.2567 22.6211 62.1562 21.4354 61.1091C19.8487 59.708 17.8227 57.3642 16.8374 55.5002C15.5471 53.0605 15.0097 49.9873 15.1227 47.2362C15.1718 46.0611 15.2677 44.4531 15.4362 43.3036C15.5301 42.6723 15.8009 41.9792 15.9267 41.3394C16.0696 40.6207 16.1016 39.8231 16.2637 39.1172C16.4108 38.4816 16.7286 37.7992 16.9099 37.1551C17.5454 34.9158 17.925 32.5592 18.4944 30.2986C18.8229 24.8604 18.1383 19.759 15.899 14.7963C15.1675 13.1755 14.0436 11.6997 13.1777 10.1493C13.1777 10.0661 13.4123 9.85925 13.4848 9.79101C16.4044 7.03135 19.3624 4.31435 22.2565 1.52696C39.7037 1.41393 57.183 1.5099 74.643 1.48005C76.3726 3.14565 78.0574 4.90722 79.755 6.62614L79.7571 6.63041ZM23.0925 3.13072L22.8003 3.34825L15.3445 10.4073C16.0184 11.5739 16.8395 12.6829 17.4047 13.9113C19.8316 19.179 20.5887 24.6641 20.2368 30.4543C19.6653 32.8024 19.2622 35.2443 18.6011 37.5667C18.4113 38.2385 18.0999 38.8975 17.9528 39.5778C17.8184 40.2027 17.7843 40.8979 17.6606 41.5356C17.5369 42.1733 17.2724 42.8792 17.1786 43.5083C17.0101 44.6493 16.9184 46.2253 16.8672 47.3919C16.7649 49.7548 17.266 52.5934 18.3558 54.7005C19.2025 56.3362 21.2754 58.7376 22.6979 59.9255C23.8133 60.8553 26.4301 61.8235 27.8525 62.393C29.7954 63.1735 31.8961 63.9818 33.8752 64.6578C34.4552 64.8562 35.0908 64.9735 35.6559 65.1803C36.2509 65.3979 36.8396 65.7668 37.4324 66.0121C38.4902 66.4493 39.563 66.7862 40.6037 67.2917C42.0987 68.0146 43.3612 68.8528 44.7304 69.7634C45.2081 70.0812 45.8394 70.384 46.2766 70.7231C46.4962 70.8916 47.6031 72.0667 47.7374 72.0582C48.3985 71.5996 48.9509 70.9172 49.6099 70.4672C51.0878 69.4606 53.212 68.326 54.8413 67.5647C56.4706 66.8033 58.196 66.3426 59.8872 65.705C60.6037 65.4341 61.2947 65.0822 62.0113 64.8114C63.1715 64.3763 64.4191 64.0884 65.5664 63.6598C67.7439 62.8494 70.1602 61.6508 72.0902 60.3627C72.7471 59.9255 74.0907 58.9701 74.6238 58.4454C75.157 57.9208 76.2553 56.445 76.7096 55.7753C78.9169 52.5316 79.674 48.9892 79.1728 45.0929C78.7206 41.5697 77.5605 37.9698 76.7842 34.4872C76.1039 31.4311 76.2724 28.5371 76.46 25.449C76.4899 24.9712 76.4131 24.4381 76.4664 23.971C76.5112 23.5594 76.7288 23.0647 76.8055 22.6211C77.3728 19.2899 78.0297 16.6454 79.868 13.7641C80.4545 12.845 81.137 11.9983 81.7746 11.1175L81.7341 11.0237C79.5908 8.8505 77.424 6.70079 75.2828 4.52974C75.061 4.30581 74.0779 3.16058 73.8753 3.12219L23.0882 3.13285L23.0925 3.13072Z" fill="black"/>
<path d="M93.7519 51.0507C93.8368 51.1658 93.87 51.4501 93.9652 51.6036C94.0729 51.7774 94.6817 52.3731 94.7065 52.5311C94.721 52.6169 94.5926 52.6665 94.5698 52.75C94.4373 53.2443 94.3814 53.5963 94.0625 54.0386C93.8762 54.2959 93.0293 54.9504 92.7476 54.9865C92.4453 55.0271 92.0705 54.9617 91.7599 54.9775C91.6171 54.9233 91.1988 53.3977 91.0766 53.1246C90.4554 51.7322 89.6044 50.5429 88.7513 49.3265C88.3992 48.8255 88.1073 48.2748 87.7076 47.8122C87.7076 47.679 88.2874 47.749 88.4158 47.7197C89.3331 47.5098 90.2173 46.905 90.9607 46.325C91.0228 46.2753 91.2319 46 91.2588 46C91.3769 46.0903 91.3065 46.2482 91.3582 46.3769C91.3934 46.4649 91.5715 46.5777 91.6419 46.7177C91.8034 47.0404 91.9173 47.6001 92.085 47.9115C92.1658 48.0627 92.3356 48.153 92.4143 48.3109C92.5716 48.6314 92.6317 49.0895 92.8139 49.4461C92.9112 49.6357 93.0769 49.8185 93.1804 50.0216C93.433 50.5203 93.4144 50.5858 93.754 51.0484L93.7519 51.0507Z" fill="black"/>
<path d="M9.70528 47.0676C9.35578 47.49 8.83389 47.7638 8.46077 48.1628C7.85387 48.8081 7.43352 49.5913 6.87384 50.2492C6.4346 50.7671 6.15123 51.5058 5.79936 52.0831C5.62461 52.3675 5.30345 52.688 5.09327 52.9767C4.98937 53.121 4.50054 53.9403 4.42497 53.9806C4.36593 54.0124 3.47329 53.9997 3.34577 53.9806C3.09545 53.9382 2.98918 53.7747 2.84985 53.7153C2.73886 53.6665 2.63732 53.7089 2.50743 53.6155C2.4602 53.5837 1.92414 52.8005 1.90053 52.7347C1.86983 52.6456 1.90525 52.5394 1.87691 52.4503C1.80135 52.2168 1.65021 52.1531 1.7305 51.839C1.78009 51.6459 2.43187 50.7565 2.59953 50.5337C2.69163 50.4106 2.86638 50.3235 2.95612 50.1919C3.22061 49.8014 3.42842 49.0734 3.67638 48.7019C3.76847 48.564 3.95503 48.5194 4.02824 48.409C4.10144 48.2987 4.15812 48.0334 4.23841 47.8848C4.56902 47.2862 4.96103 46.6792 5.06021 46C5.294 46.0955 5.43569 46.2929 5.6317 46.4287C5.72143 46.4903 6.35668 46.8957 6.40391 46.9063C6.8762 47.0039 7.35087 47.0337 7.78302 47.195C8.16322 47.3372 9.28257 47.1907 9.70764 47.0697L9.70528 47.0676Z" fill="black"/>
<path d="M87.7801 46.6177C87.6692 46.75 87.6777 46.767 87.4559 46.8779C87.3812 46.9163 86.9782 47.0549 86.959 47.0763C86.9313 47.1061 86.976 47.2085 86.9206 47.2213C86.8652 47.2341 86.4706 47.2256 86.445 47.2085C86.4301 47.1978 86.3021 46.9099 86.2957 46.8737C86.2637 46.7201 86.2573 45.8009 86.2957 45.6687C86.3192 45.5877 86.5133 45.368 86.5623 45.2699C86.5943 45.2059 86.5794 45.095 86.5964 45.0758C86.6092 45.063 86.7415 45.0694 86.8225 45.0204C86.9803 44.9287 87.1893 44.468 87.3493 44.692C87.6649 45.127 87.9102 45.7732 88.2194 46.2317C88.2727 46.4706 87.8312 46.5538 87.7779 46.6177H87.7801Z" fill="black"/>
<path d="M40.4821 75.0098C40.8148 75.4064 40.3499 76.6263 39.8892 76.7585C39.5757 76.8481 39.3219 76.6178 39.0212 76.5751L39.7357 74.6344C39.8317 74.564 40.3947 74.9053 40.4821 75.0098Z" fill="black"/>
<path d="M32.9111 73.8496C32.5657 74.1972 32.137 73.9242 31.751 73.8155L32.4675 71.8726C32.8301 71.9494 33.3313 72.1563 33.3782 72.5764C33.408 72.8472 33.1031 73.6555 32.909 73.8496H32.9111Z" fill="black"/>
<path d="M44.4189 76.8012C44.967 77.2021 44.6301 78.0104 44.2547 78.4135C43.8538 78.8443 43.2332 78.8464 42.9325 78.3111C42.587 77.6948 43.5147 76.1401 44.4189 76.8012Z" fill="black"/>
<path d="M36.4578 73.5084C36.4087 73.9583 36.4215 74.4169 36.3554 74.8626C36.3469 74.9202 36.381 74.9671 36.2808 74.9372C36.1805 74.9074 35.6986 74.7154 35.6239 74.6728C35.577 74.6451 35.5216 74.6259 35.5386 74.5555C35.8351 74.2932 36.0398 73.856 36.3064 73.583C36.3554 73.5339 36.3725 73.4849 36.4578 73.5062V73.5084Z" fill="black"/>
<path d="M70.1537 69.1258C70.3563 69.3326 70.7402 70.2774 70.7807 70.5717C70.8959 71.4226 70.2923 71.6679 69.8551 70.9343C69.6867 70.6506 69.3689 69.7912 69.3646 69.4798C69.3582 69.0277 69.8146 68.7845 70.1516 69.1279L70.1537 69.1258Z" fill="black"/>
<path d="M76.155 66.5516C76.2318 66.622 76.5048 67.5113 76.6157 67.6755C76.283 67.7502 75.9631 67.9528 75.6432 68.085C75.5963 68.0253 75.9737 66.7628 76.0399 66.6156C76.0633 66.5602 76.0846 66.4876 76.1529 66.5516H76.155Z" fill="black"/>
<path d="M24.8455 27.0101L74.257 40.5204L74.2655 40.9022L24.8455 54.5832V27.0101ZM25.3061 27.6243V40.7188H27.6584C27.6648 39.5906 28.0871 38.52 29.1939 38.085C29.9126 37.8034 31.0216 37.7992 31.7339 38.0999C32.3673 38.3686 32.7384 38.9465 32.9751 39.5671C32.9645 39.6716 31.638 39.87 31.4482 39.9489C31.2946 39.3475 30.7785 39.0702 30.175 39.2174C29.5309 39.3752 29.3859 40.1494 29.3987 40.7167H36.8928L37.972 37.9506L39.8359 37.9783L40.8638 40.7103L44.7154 40.7188C44.7474 39.9809 44.8903 39.2025 45.4085 38.6458C46.2914 37.6989 48.4646 37.5838 49.3945 38.4987C49.5437 38.6458 50.0492 39.3859 50.0108 39.5629C49.9852 39.6823 48.6822 39.8806 48.4796 39.951C47.9698 38.4368 46.204 39.3155 46.4834 40.7188H53.3377C53.2972 39.8316 53.5937 38.8506 54.3657 38.3451C55.3232 37.7181 57.1381 37.6606 57.9869 38.4987C58.1362 38.6458 58.6417 39.3859 58.6033 39.5629C58.5777 39.6823 57.2746 39.8806 57.072 39.951C56.5623 38.4368 54.7965 39.3155 55.0759 40.7188H73.0328L25.304 27.6243H25.3061ZM39.2707 40.7188L38.8869 39.4904L38.503 40.7188H39.2707ZM29.4499 40.77H27.7608C27.7843 42.1711 28.4241 43.3441 29.8892 43.5787C31.3543 43.8133 32.6851 43.3505 33.0263 41.8235C32.9965 41.7041 31.783 41.4418 31.5996 41.333C31.4972 41.8789 31.2157 42.3737 30.5994 42.4078C29.6226 42.4633 29.3752 41.5825 29.4499 40.77ZM38.4539 40.77H36.9696L35.9459 43.5318H37.635C37.6563 43.3803 37.8312 42.6488 37.9229 42.6168L39.8039 42.6062L40.0918 43.5296H41.7809L40.7316 40.7678H39.2729L39.4776 41.4844H38.2492L38.4539 40.7678V40.77ZM46.4343 40.77H44.7965C44.7559 42.1135 45.4363 43.3292 46.831 43.5701C48.3345 43.8303 49.6504 43.3974 50.062 41.8171C49.8956 41.7233 48.6374 41.3287 48.5819 41.382C48.5286 42.1007 47.9656 42.5315 47.249 42.3823C46.5324 42.233 46.4493 41.397 46.4343 40.7678V40.77ZM55.0289 40.77H53.3911C53.2972 41.9408 53.9349 43.2055 55.1292 43.5062C56.2488 43.7898 57.6649 43.6768 58.3111 42.5955C58.3836 42.474 58.6353 41.9301 58.6054 41.8256C58.5649 41.6913 57.3685 41.4588 57.1765 41.333C57.1083 42.0474 56.5858 42.5401 55.8436 42.3844C55.1014 42.2287 54.9948 41.397 55.0289 40.77ZM35.4853 42.0496H33.8986V43.5339H35.4853V42.0496ZM43.9775 42.0496H42.3908V43.5339H43.9775V42.0496ZM52.5721 42.0496H50.9854V43.5339H52.5721V42.0496ZM61.1667 42.0496H59.58V43.5339H61.1667V42.0496Z" fill="black"/>
<path d="M8.86119 45.7113C8.94649 45.8137 8.9401 45.8265 9.11071 45.9118C9.16829 45.9416 9.47753 46.0483 9.49245 46.0632C9.51378 46.0867 9.47966 46.1656 9.52231 46.1741C9.56497 46.1826 9.8678 46.1784 9.887 46.1656C9.89979 46.157 9.99576 45.9352 10.0022 45.9075C10.0256 45.7881 10.032 45.0843 10.0022 44.9819C9.98297 44.9201 9.83581 44.7516 9.79742 44.6748C9.77397 44.6258 9.78463 44.5405 9.7697 44.5256C9.75904 44.5149 9.6588 44.5213 9.59695 44.4829C9.47539 44.4125 9.31544 44.0585 9.19175 44.2312C8.95076 44.5661 8.76095 45.0609 8.52423 45.4127C8.48371 45.5961 8.8228 45.6601 8.86332 45.7092L8.86119 45.7113Z" fill="black"/>
<path d="M53.6224 57.5759H56.3858V58.3228H54.5933V58.5468H56.3485V59.219H54.5933V59.4431H56.3858V60.1899H53.6224V57.5759Z" fill="black"/>
<path d="M51.1764 59.3684H51.7477C52.1635 59.3684 52.3713 59.2066 52.3713 58.8829C52.3713 58.5593 52.1635 58.3975 51.7477 58.3975H51.1764V59.3684ZM50.2054 57.5759H51.7477C52.278 57.5759 52.6788 57.6917 52.9501 57.9232C53.2115 58.1448 53.3422 58.4647 53.3422 58.8829C53.3422 59.3012 53.2115 59.6211 52.9501 59.8426C52.6788 60.0742 52.278 60.1899 51.7477 60.1899H50.2054V57.5759Z" fill="black"/>
<path d="M48.8489 59.2563C48.7668 59.2265 48.5962 59.2078 48.3373 59.2003C47.6875 59.1804 47.2494 59.1032 47.0228 58.9688C46.8287 58.8568 46.7316 58.6551 46.7316 58.3639C46.7316 58.085 46.8448 57.8809 47.0714 57.7514C47.3228 57.6095 47.7448 57.5386 48.3373 57.5386C48.9273 57.5386 49.3418 57.6207 49.5808 57.785C49.7949 57.9294 49.902 58.1647 49.902 58.4908H48.9311C48.9311 58.4062 48.8912 58.3514 48.8116 58.3265C48.7344 58.2991 48.5763 58.2854 48.3373 58.2854C48.0759 58.2854 47.9066 58.2954 47.8294 58.3153C47.7747 58.3302 47.7473 58.3601 47.7473 58.4049C47.7473 58.4472 47.7747 58.4759 47.8294 58.4908C47.8992 58.5058 48.0684 58.5182 48.3373 58.5282C48.9846 58.5531 49.4215 58.6327 49.648 58.7672C49.8447 58.8842 49.943 59.0883 49.943 59.3796C49.943 59.6609 49.8298 59.8688 49.6032 60.0032C49.3493 60.1526 48.9273 60.2273 48.3373 60.2273C47.7448 60.2273 47.3228 60.1451 47.0714 59.9808C46.8448 59.8339 46.7316 59.5987 46.7316 59.275H47.7025C47.7025 59.3597 47.7411 59.4144 47.8182 59.4393C47.8954 59.4667 48.0684 59.4804 48.3373 59.4804C48.5987 59.4804 48.768 59.4704 48.8452 59.4505C48.9024 59.4356 48.9311 59.4057 48.9311 59.3609C48.9311 59.3111 48.9037 59.2763 48.8489 59.2563Z" fill="black"/>
<path d="M43.8086 57.6022H46.5442V58.3415H44.7697V58.5633H46.5072V59.2287H44.7697V59.4505H46.5442V60.1899H43.8086V57.6022Z" fill="black"/>
<path d="M41.3871 59.3766H41.9527C42.3643 59.3766 42.5701 59.2164 42.5701 58.896C42.5701 58.5757 42.3643 58.4155 41.9527 58.4155H41.3871V59.3766ZM40.426 57.6022H41.9527C42.4777 57.6022 42.8744 57.7168 43.1431 57.946C43.4018 58.1653 43.5312 58.482 43.5312 58.896C43.5312 59.3101 43.4018 59.6268 43.1431 59.8461C42.8744 60.0753 42.4777 60.1899 41.9527 60.1899H40.426V57.6022Z" fill="black"/>
<path d="M53.725 61.4857C53.9317 61.6126 54.035 61.8168 54.035 62.0981C54.035 62.362 53.9429 62.5574 53.7586 62.6844C53.5869 62.8039 53.2109 62.9433 52.6309 63.1026H53.9603V63.9242H51.0475V63.1026C51.6276 62.8686 52.118 62.6757 52.5189 62.5238C52.7578 62.4342 52.9097 62.3695 52.9744 62.3296C53.0267 62.2973 53.0529 62.2587 53.0529 62.2139V62.1765L53.0454 62.1429C53.0379 62.118 53.0192 62.0969 52.9894 62.0794C52.9172 62.0396 52.7603 62.0197 52.5189 62.0197C52.3446 62.0197 52.2189 62.0433 52.1417 62.0906C52.0595 62.1404 52.0185 62.2226 52.0185 62.3371H51.0475C51.0475 61.9537 51.1434 61.6848 51.3351 61.5305C51.5517 61.3587 51.9463 61.2728 52.5189 61.2728C53.089 61.2728 53.491 61.3438 53.725 61.4857Z" fill="black"/>
<path d="M50.6866 62.3819C50.6294 62.4765 50.531 62.5487 50.3916 62.5985C50.546 62.6483 50.6542 62.7217 50.7165 62.8188C50.7762 62.9084 50.8061 63.0329 50.8061 63.1922C50.8061 63.4636 50.6953 63.6578 50.4738 63.7748C50.2373 63.8993 49.8252 63.9615 49.2377 63.9615C48.6552 63.9615 48.2431 63.8781 48.0017 63.7113C47.7801 63.5595 47.6693 63.313 47.6693 62.9719H48.6402C48.6402 63.0765 48.6738 63.1425 48.7411 63.1698C48.8108 63.1997 48.9763 63.2147 49.2377 63.2147C49.4867 63.2147 49.6522 63.2022 49.7344 63.1773C49.7891 63.1574 49.8165 63.1238 49.8165 63.0765C49.8165 63.0292 49.7829 62.9956 49.7157 62.9757C49.6261 62.9483 49.4543 62.9346 49.2004 62.9346H48.9464V62.2624H49.2004C49.4493 62.2624 49.6136 62.2525 49.6933 62.2325C49.7555 62.2151 49.7866 62.184 49.7866 62.1392C49.7866 62.0944 49.7593 62.0645 49.7045 62.0496C49.6298 62.0296 49.4667 62.0197 49.2153 62.0197C48.9838 62.0197 48.8357 62.0346 48.7709 62.0645C48.7087 62.0919 48.6776 62.1579 48.6776 62.2624H47.7067C47.7067 61.9189 47.8087 61.6724 48.0129 61.523C48.2419 61.3562 48.6427 61.2728 49.2153 61.2728C49.7979 61.2728 50.2049 61.3313 50.4364 61.4483C50.6555 61.5604 50.765 61.7521 50.765 62.0234C50.765 62.1778 50.7389 62.2973 50.6866 62.3819Z" fill="black"/>
<path d="M46.6243 62.3184C46.6243 62.1193 46.4252 62.0197 46.0269 62.0197C45.6285 62.0197 45.4294 62.1193 45.4294 62.3184C45.4294 62.5176 45.6285 62.6172 46.0269 62.6172C46.4252 62.6172 46.6243 62.5176 46.6243 62.3184ZM46.6057 62.8823C46.404 63.0043 46.1252 63.0653 45.7692 63.0653C45.3808 63.0653 45.0759 62.9881 44.8543 62.8338C44.6402 62.6869 44.5331 62.4902 44.5331 62.2437C44.5331 61.9101 44.6576 61.6637 44.9066 61.5044C45.1505 61.35 45.524 61.2728 46.0269 61.2728C47.0227 61.2728 47.5206 61.696 47.5206 62.5425C47.5206 63.4885 46.9729 63.9615 45.8775 63.9615C45.4617 63.9615 45.0883 63.9242 44.7572 63.8495V63.14C45.051 63.2147 45.3995 63.252 45.8028 63.252C46.2758 63.252 46.5434 63.1288 46.6057 62.8823Z" fill="black"/>
<path d="M43.2955 61.3364H44.2567V63.9242H43.2955V62.2606L42.5562 62.7042V61.78L43.2955 61.3364Z" fill="black"/>
<path d="M68.1376 9.11005C68.1376 9.4759 68.3859 9.65882 68.8824 9.65882C69.3789 9.65882 69.6272 9.4759 69.6272 9.11005C69.6272 8.7442 69.3789 8.56127 68.8824 8.56127C68.3859 8.56127 68.1376 8.7442 68.1376 9.11005ZM67.5614 8.0713C67.8645 7.82304 68.3049 7.69891 68.8824 7.69891C69.4599 7.69891 69.9002 7.82304 70.2034 8.0713C70.4987 8.31433 70.6463 8.66058 70.6463 9.11005C70.6463 9.55952 70.4987 9.90577 70.2034 10.1488C69.9002 10.3971 69.4599 10.5212 68.8824 10.5212C68.3049 10.5212 67.8645 10.3971 67.5614 10.1488C67.2661 9.90577 67.1185 9.55952 67.1185 9.11005C67.1185 8.66058 67.2661 8.31433 67.5614 8.0713Z" fill="black"/>
<path d="M66.1171 7.7381H67.1755L65.9995 10.482H64.51L63.334 7.7381H64.3924L65.2548 9.74897L66.1171 7.7381Z" fill="black"/>
<path d="M62.1176 10.482V7.7381H63.1367V10.482H62.1176Z" fill="black"/>
<path d="M58.8257 7.7381H61.8831V8.60046H60.864V10.482H59.8448V8.60046H58.8257V7.7381Z" fill="black"/>
<path d="M56.6292 8.60046V8.99244H57.4602C57.6379 8.99244 57.7267 8.92711 57.7267 8.79645C57.7267 8.66579 57.6379 8.60046 57.4602 8.60046H56.6292ZM56.6292 9.8548V10.482H55.61V7.7381H57.4249C57.8561 7.7381 58.1854 7.83217 58.4127 8.02033C58.6348 8.20064 58.7459 8.45935 58.7459 8.79645C58.7459 9.2224 58.5708 9.52292 58.2206 9.69801L58.7459 10.482H57.6876L57.2681 9.8548H56.6292Z" fill="black"/>
<path d="M52.8066 9.11005C52.8066 9.4759 53.0548 9.65882 53.5513 9.65882C54.0478 9.65882 54.2961 9.4759 54.2961 9.11005C54.2961 8.7442 54.0478 8.56127 53.5513 8.56127C53.0548 8.56127 52.8066 8.7442 52.8066 9.11005ZM52.2304 8.0713C52.5335 7.82304 52.9738 7.69891 53.5513 7.69891C54.1289 7.69891 54.5692 7.82304 54.8723 8.0713C55.1676 8.31433 55.3153 8.66058 55.3153 9.11005C55.3153 9.55952 55.1676 9.90577 54.8723 10.1488C54.5692 10.3971 54.1289 10.5212 53.5513 10.5212C52.9738 10.5212 52.5335 10.3971 52.2304 10.1488C51.9351 9.90577 51.7874 9.55952 51.7874 9.11005C51.7874 8.66058 51.9351 8.31433 52.2304 8.0713Z" fill="black"/>
<path d="M49.6508 8.60046V8.99244H50.325C50.5027 8.99244 50.5916 8.92711 50.5916 8.79645C50.5916 8.66579 50.5027 8.60046 50.325 8.60046H49.6508ZM49.6508 9.8548V10.482H48.6317V7.7381H50.2897C50.7209 7.7381 51.0502 7.83217 51.2775 8.02033C51.4997 8.20064 51.6107 8.45935 51.6107 8.79645C51.6107 9.13355 51.4997 9.39226 51.2775 9.57257C51.0502 9.76073 50.7209 9.8548 50.2897 9.8548H49.6508Z" fill="black"/>
<path d="M45.4354 7.7381H48.336V8.52206H46.4545V8.75725H48.2968V9.46282H46.4545V9.69801H48.336V10.482H45.4354V7.7381Z" fill="black"/>
<path d="M42.8677 9.61961H43.4674C43.9038 9.61961 44.122 9.44975 44.122 9.11004C44.122 8.77032 43.9038 8.60046 43.4674 8.60046H42.8677V9.61961ZM41.8485 7.7381H43.4674C44.024 7.7381 44.4447 7.85961 44.7296 8.10264C45.004 8.33522 45.1412 8.67102 45.1412 9.11004C45.1412 9.54906 45.004 9.88485 44.7296 10.1174C44.4447 10.3605 44.024 10.482 43.4674 10.482H41.8485V7.7381Z" fill="black"/>
<path d="M38.0253 9.46282V9.73721H38.9386C39.0615 9.73721 39.1229 9.69148 39.1229 9.60001C39.1229 9.50855 39.0615 9.46282 38.9386 9.46282H38.0253ZM38.0253 8.48286V8.75725H38.821C38.9439 8.75725 39.0053 8.71152 39.0053 8.62006C39.0053 8.5286 38.9439 8.48286 38.821 8.48286H38.0253ZM39.2365 10.482H37.0062V7.7381H39.1425C39.4325 7.7381 39.6534 7.80082 39.8049 7.92625C39.9513 8.04646 40.0244 8.21893 40.0244 8.44367C40.0244 8.75725 39.882 8.96762 39.5972 9.07476C39.9604 9.16622 40.142 9.39357 40.142 9.75681C40.142 9.98677 40.0662 10.1645 39.9147 10.2899C39.7579 10.4179 39.5318 10.482 39.2365 10.482Z" fill="black"/>
<path d="M36.2509 10.1488C35.9608 10.397 35.5401 10.5212 34.9887 10.5212C34.4373 10.5212 34.0166 10.397 33.7265 10.1488C33.4443 9.90576 33.3032 9.55951 33.3032 9.11004V7.7381H34.3223V9.11004C34.3223 9.47589 34.5444 9.65881 34.9887 9.65881C35.4329 9.65881 35.6551 9.47589 35.6551 9.11004V7.7381H36.6742V9.11004C36.6742 9.55951 36.5331 9.90576 36.2509 10.1488Z" fill="black"/>
<path d="M30.579 7.7381H31.5982V9.61961H33.1661V10.482H30.579V7.7381Z" fill="black"/>
<path d="M29.2644 9.27904H30.285C30.2488 9.67484 30.0871 9.97881 29.7999 10.1909C29.5024 10.4108 29.086 10.5208 28.5505 10.5208C27.9787 10.5208 27.5428 10.3979 27.2427 10.1521C26.9504 9.91155 26.8043 9.56878 26.8043 9.12382C26.8043 8.67887 26.9504 8.33609 27.2427 8.09551C27.5428 7.84975 27.9787 7.72687 28.5505 7.72687C29.086 7.72687 29.5024 7.83681 29.7999 8.0567C30.0871 8.26883 30.2488 8.5728 30.285 8.9686H29.2644C29.192 8.70991 28.954 8.58056 28.5505 8.58056C28.0589 8.58056 27.8132 8.76165 27.8132 9.12382C27.8132 9.48599 28.0589 9.66708 28.5505 9.66708C28.954 9.66708 29.192 9.53773 29.2644 9.27904Z" fill="black"/>
<path d="M67.7461 12.8571H69.8138V16.6744H72.9949V18.424H67.7461V12.8571Z" fill="black"/>
<path d="M61.9369 12.8571H64.959L67.3448 18.424H65.1975L64.792 17.4697H62.104L61.6984 18.424H59.5511L61.9369 12.8571ZM63.448 14.3443L62.7243 16.0382H64.1717L63.448 14.3443Z" fill="black"/>
<path d="M54.9026 14.6067V15.402H56.5886C56.9491 15.402 57.1293 15.2694 57.1293 15.0043C57.1293 14.7392 56.9491 14.6067 56.5886 14.6067H54.9026ZM54.9026 17.1516V18.424H52.8349V12.8571H56.517C57.3918 12.8571 58.0598 13.048 58.5211 13.4297C58.9717 13.7955 59.197 14.3204 59.197 15.0043C59.197 15.8685 58.8418 16.4782 58.1314 16.8335L59.197 18.424H57.0498L56.1989 17.1516H54.9026Z" fill="black"/>
<path d="M46.1561 12.8571H52.3592V14.6067H50.2915V18.424H48.2238V14.6067H46.1561V12.8571Z" fill="black"/>
<path d="M43.6116 12.8571H45.6793V18.424H43.2935L40.9077 15.4417V18.424H38.84V12.8571H41.2258L43.6116 15.8394V12.8571Z" fill="black"/>
<path d="M32.3552 12.8571H38.2402V14.4477H34.4229V14.9248H38.1607V16.3563H34.4229V16.8335H38.2402V18.424H32.3552V12.8571Z" fill="black"/>
<path d="M29.6881 15.9834H31.7586C31.6852 16.7865 31.3571 17.4032 30.7745 17.8335C30.171 18.2797 29.326 18.5027 28.2395 18.5027C27.0796 18.5027 26.1952 18.2534 25.5864 17.7548C24.9933 17.2667 24.6968 16.5713 24.6968 15.6685C24.6968 14.7658 24.9933 14.0704 25.5864 13.5823C26.1952 13.0837 27.0796 12.8344 28.2395 12.8344C29.326 12.8344 30.171 13.0574 30.7745 13.5035C31.3571 13.9339 31.6852 14.5506 31.7586 15.3536H29.6881C29.5411 14.8288 29.0583 14.5664 28.2395 14.5664C27.2423 14.5664 26.7437 14.9337 26.7437 15.6685C26.7437 16.4033 27.2423 16.7707 28.2395 16.7707C29.0583 16.7707 29.5411 16.5083 29.6881 15.9834Z" fill="black"/>
<path d="M58.5547 20.3677H60.0443L61.2202 23.1116H60.1619L59.9619 22.6412H58.637L58.4371 23.1116H57.3788L58.5547 20.3677ZM59.2995 21.1007L58.9428 21.9356H59.6562L59.2995 21.1007Z" fill="black"/>
<path d="M55.1641 22.0924V22.3668H56.0774C56.2002 22.3668 56.2616 22.3211 56.2616 22.2296C56.2616 22.1381 56.2002 22.0924 56.0774 22.0924H55.1641ZM55.1641 21.1124V21.3868H55.9598C56.0826 21.3868 56.144 21.3411 56.144 21.2496C56.144 21.1582 56.0826 21.1124 55.9598 21.1124H55.1641ZM56.3753 23.1116H54.1449V20.3677H56.2812C56.5713 20.3677 56.7921 20.4304 56.9437 20.5558C57.09 20.676 57.1632 20.8485 57.1632 21.0732C57.1632 21.3868 57.0207 21.5972 56.7359 21.7043C57.0991 21.7958 57.2808 22.0231 57.2808 22.3864C57.2808 22.6163 57.205 22.794 57.0534 22.9195C56.8966 23.0475 56.6706 23.1116 56.3753 23.1116Z" fill="black"/>
<path d="M51.3414 21.7396C51.3414 22.1055 51.5897 22.2884 52.0862 22.2884C52.5827 22.2884 52.831 22.1055 52.831 21.7396C52.831 21.3738 52.5827 21.1909 52.0862 21.1909C51.5897 21.1909 51.3414 21.3738 51.3414 21.7396ZM50.7652 20.7009C51.0683 20.4526 51.5087 20.3285 52.0862 20.3285C52.6637 20.3285 53.104 20.4526 53.4072 20.7009C53.7025 20.9439 53.8501 21.2902 53.8501 21.7396C53.8501 22.1891 53.7025 22.5354 53.4072 22.7784C53.104 23.0266 52.6637 23.1508 52.0862 23.1508C51.5087 23.1508 51.0683 23.0266 50.7652 22.7784C50.4699 22.5354 50.3223 22.1891 50.3223 21.7396C50.3223 21.2902 50.4699 20.9439 50.7652 20.7009Z" fill="black"/>
<path d="M47.8527 22.2492H48.4524C48.8889 22.2492 49.1071 22.0793 49.1071 21.7396C49.1071 21.3999 48.8889 21.23 48.4524 21.23H47.8527V22.2492ZM46.8336 20.3677H48.4524C49.0091 20.3677 49.4298 20.4892 49.7146 20.7322C49.989 20.9648 50.1262 21.3006 50.1262 21.7396C50.1262 22.1786 49.989 22.5144 49.7146 22.747C49.4298 22.99 49.0091 23.1116 48.4524 23.1116H46.8336V20.3677Z" fill="black"/>
<path d="M44.4228 21.23V21.622H45.2538C45.4315 21.622 45.5204 21.5567 45.5204 21.426C45.5204 21.2954 45.4315 21.23 45.2538 21.23H44.4228ZM44.4228 22.4844V23.1116H43.4037V20.3677H45.2186C45.6497 20.3677 45.979 20.4618 46.2064 20.6499C46.4285 20.8302 46.5395 21.0889 46.5395 21.426C46.5395 21.852 46.3645 22.1525 46.0143 22.3276L46.5395 23.1116H45.4812L45.0618 22.4844H44.4228Z" fill="black"/>
<path d="M40.6003 21.7396C40.6003 22.1055 40.8485 22.2884 41.345 22.2884C41.8415 22.2884 42.0898 22.1055 42.0898 21.7396C42.0898 21.3738 41.8415 21.1909 41.345 21.1909C40.8485 21.1909 40.6003 21.3738 40.6003 21.7396ZM40.0241 20.7009C40.3272 20.4526 40.7675 20.3285 41.345 20.3285C41.9226 20.3285 42.3629 20.4526 42.666 20.7009C42.9613 20.9439 43.109 21.2902 43.109 21.7396C43.109 22.1891 42.9613 22.5354 42.666 22.7784C42.3629 23.0266 41.9226 23.1508 41.345 23.1508C40.7675 23.1508 40.3272 23.0266 40.0241 22.7784C39.7288 22.5354 39.5811 22.1891 39.5811 21.7396C39.5811 21.2902 39.7288 20.9439 40.0241 20.7009Z" fill="black"/>
<path d="M38.3645 21.9086H39.385C39.3488 22.3044 39.1871 22.6084 38.9 22.8205C38.6025 23.0404 38.186 23.1504 37.6505 23.1504C37.0788 23.1504 36.6429 23.0275 36.3428 22.7817C36.0505 22.5411 35.9043 22.1984 35.9043 21.7534C35.9043 21.3084 36.0505 20.9657 36.3428 20.7251C36.6429 20.4793 37.0788 20.3564 37.6505 20.3564C38.186 20.3564 38.6025 20.4664 38.9 20.6863C39.1871 20.8984 39.3488 21.2024 39.385 21.5982H38.3645C38.2921 21.3395 38.0541 21.2101 37.6505 21.2101C37.159 21.2101 36.9132 21.3912 36.9132 21.7534C36.9132 22.1156 37.159 22.2967 37.6505 22.2967C38.0541 22.2967 38.2921 22.1673 38.3645 21.9086Z" fill="black"/>
</g>
<defs>
<clipPath id="clip0_94_1019">
<rect width="96.4152" height="89" fill="white"/>
</clipPath>
</defs>
</svg>
