<svg width="28" height="18" viewBox="0 0 28 18" fill="none" xmlns="http://www.w3.org/2000/svg">
<path d="M1.50034 17.7833C1.26367 17.7833 1.06589 17.7028 0.907004 17.5417C0.748115 17.3805 0.668115 17.1822 0.667004 16.9467C0.665892 16.7111 0.745893 16.5133 0.907004 16.3533C1.06811 16.1933 1.26589 16.1139 1.50034 16.115H26.5003C26.737 16.115 26.9348 16.195 27.0937 16.355C27.2537 16.515 27.3337 16.7133 27.3337 16.95C27.3337 17.1867 27.2537 17.3844 27.0937 17.5433C26.9337 17.7022 26.7359 17.7817 26.5003 17.7817L1.50034 17.7833ZM1.50034 9.83332C1.26367 9.83332 1.06589 9.75332 0.907004 9.59332C0.748115 9.43332 0.668115 9.23499 0.667004 8.99832C0.665892 8.76165 0.745893 8.56388 0.907004 8.40499C1.06811 8.2461 1.26589 8.16666 1.50034 8.16666H26.5003C26.737 8.16666 26.9348 8.24666 27.0937 8.40666C27.2526 8.56666 27.3326 8.76499 27.3337 9.00166C27.3348 9.23832 27.2548 9.4361 27.0937 9.59499C26.9326 9.75388 26.7348 9.83332 26.5003 9.83332H1.50034ZM1.50034 1.88332C1.26367 1.88332 1.06589 1.80388 0.907004 1.64499C0.747004 1.48499 0.667004 1.28666 0.667004 1.04999C0.667004 0.813323 0.747004 0.615545 0.907004 0.456656C1.067 0.297767 1.26478 0.218323 1.50034 0.218323H26.5003C26.737 0.218323 26.9348 0.298323 27.0937 0.458323C27.2526 0.618323 27.3326 0.815545 27.3337 1.04999C27.3348 1.28443 27.2548 1.48221 27.0937 1.64332C26.9326 1.80443 26.7348 1.88443 26.5003 1.88332H1.50034Z" fill="#F2F2F2"/>
</svg>
