<svg width="35" height="34" viewBox="0 0 35 34" fill="none" xmlns="http://www.w3.org/2000/svg">
<circle cx="17.5" cy="17" r="17" fill="#EFEFEF"/>
<path d="M12.92 11.956L11.45 10.473M20.759 11.956L22.229 10.473M11.449 21.353L12.919 19.869M16.839 9.979V8M10.959 15.913H9M22.875 21.836L26.689 20.33C26.781 20.2932 26.8599 20.2296 26.9155 20.1475C26.971 20.0655 27.0007 19.9686 27.0007 19.8695C27.0007 19.7704 26.971 19.6735 26.9155 19.5915C26.8599 19.5094 26.781 19.4458 26.689 19.409L17.524 15.794C17.4348 15.7595 17.3374 15.7517 17.2439 15.7717C17.1503 15.7916 17.0646 15.8384 16.9972 15.9063C16.9298 15.9742 16.8837 16.0603 16.8645 16.154C16.8452 16.2478 16.8538 16.345 16.889 16.434L20.471 25.685C20.633 26.105 21.221 26.105 21.383 25.685L22.875 21.836Z" stroke="#DF3737" stroke-width="1.5" stroke-linecap="round" stroke-linejoin="round"/>
</svg>
